# xmcd
#
# Track frame offsets:
#	150
#	14602
#	26927
#	41581
#	53856
#	71705
#	84510
#	97654
#	114226
#	126673
#	139703
#	153149
#	165548
#	175497
#
# Disc length: 2502 seconds
#
# Revision: 0
# Processed by: cddbd v1.5.1PL0 Copyright (c) Steve Scherf et al.
# Submitted via: dBpowerAMP V4.0
#
DISCID=b909c40e
DTITLE=Merle Haggard - Gets Rowdy
DYEAR=2005
DGENRE=Country
TTITLE0=Branded Man
TTITLE1=Everybody's Had The Blues
TTITLE2=I'm A Lonesome Fugitive
TTITLE3=I Take A Lot Of Pride In What I Am
TTITLE4=I Think I Will Stay Here And Drink
TTITLE5=It's Been A Great Afternoon
TTITLE6=Misery And Gin
TTITLE7=Ramblin' Fever
TTITLE8=The Bottle Let Me Down
TTITLE9=The Fightin' Side Of Me
TTITLE10=The Way I Am
TTITLE11=Workin' Man Blues
TTITLE12=Mama Tried
TTITLE13=Okie From Muskogee
EXTD=
EXTT0=
EXTT1=
EXTT2=
EXTT3=
EXTT4=
EXTT5=
EXTT6=
EXTT7=
EXTT8=
EXTT9=
EXTT10=
EXTT11=
EXTT12=
EXTT13=
PLAYORDER=
